<?xml version="1.0" encoding="UTF-8"?> <svg xmlns="http://www.w3.org/2000/svg" xmlns:xlink="http://www.w3.org/1999/xlink" id="Layer_1" data-name="Layer 1" viewBox="0 0 1856.16 394.7"><defs><style>.cls-1{fill:none;}.cls-2{clip-path:url(#clip-path);}.cls-3{fill:#2c3d4f;}.cls-4,.cls-5{fill:#7d8b8c;}.cls-5{fill-rule:evenodd;}</style><clipPath id="clip-path" transform="translate(-31.92 -342.65)"><rect class="cls-1" width="1920" height="1080"></rect></clipPath></defs><title>logo_vetor</title><g class="cls-2"><path class="cls-3" d="M98.55,528.11h20.7V460H45.84a14,14,0,0,0-13.92,13.93v74H98.55Z" transform="translate(-31.92 -342.65)"></path><path class="cls-4" d="M31.92,722.17a14,14,0,0,0,13.92,13.92H84.62a14,14,0,0,0,13.93-13.92V567.11H31.92Z" transform="translate(-31.92 -342.65)"></path><path class="cls-4" d="M286.24,528.11a83.93,83.93,0,0,0-77.42-68V460H138.43v68.13h54.84c21.32,0,32.18,6.74,31.61,31.45l-3.83,162.61A13.86,13.86,0,0,0,235,736.09h38.77a14,14,0,0,0,13.93-13.92V559q0-15.49-1.44-30.93" transform="translate(-31.92 -342.65)"></path><path class="cls-5" d="M382.76,571.21h119.7v-12a47.31,47.31,0,0,0-47.17-47.17H439.37a56.77,56.77,0,0,0-56.61,56.6ZM562.31,727.77c-39.45,8.32-78.9,8.32-118.35,8.32-64.84,0-132.53-55.72-132.53-127.85V579.71c0-62.27,42.84-124.19,129.77-124.19h16.47c77.22,0,113.29,51.79,113.29,99.06s0,46.85-3.58,70.27l-184.62-.2c0,53.14,64.34,68,179.55,47.09Z" transform="translate(-31.92 -342.65)"></path><path class="cls-5" d="M885.07,516V417.07H935.2l10.34,42.71h65.36V516H951.59V647.92c0,14.53,13.26,32.72,28.8,32.72h30.14v55.45H940.82a55.91,55.91,0,0,1-55.75-55.74Z" transform="translate(-31.92 -342.65)"></path><path class="cls-5" d="M1762.26,516V417.07h50.12l10.35,42.71h65.35V516h-59.31V647.92c0,14.53,13.26,32.72,28.8,32.72h30.14v55.45H1818a55.9,55.9,0,0,1-55.75-55.74Z" transform="translate(-31.92 -342.65)"></path><path class="cls-5" d="M1645.7,459.86c0-68,60.57-67,116.4-50.24v-55c-16-7.79-42.22-12-55.14-12h-17.3c-58.8,0-111,38.33-111,87.8V736.09h67.06v-220h81v-56.2Z" transform="translate(-31.92 -342.65)"></path><path class="cls-5" d="M1412.67,512.53h11.94A64.65,64.65,0,0,1,1489.07,577V617.1a64.65,64.65,0,0,1-64.46,64.46h-11.94a64.65,64.65,0,0,1-64.46-64.46V577a64.65,64.65,0,0,1,64.46-64.46M1402.62,459h35.23c67.38,0,121.17,43,121.17,138.54v15c0,70.9-59.58,123.49-122.86,123.49h-33.68c-80.79,0-124.29-69.05-124.29-136.93v-20c0-58.25,47.9-120.15,124.43-120.15" transform="translate(-31.92 -342.65)"></path><path class="cls-5" d="M1112.66,460.74c24.42-2.25,48-2.38,66.54-.56,25.79,2.54,37.48,2,72.51,14.14v55.39c-63.72-23.61-156.86-27.41-156.86,12.94,0,24.57,27.6,25.34,59.3,25.36h35.69a73.88,73.88,0,0,1,73.66,73.66v17.74c0,40.49-39.49,76.55-92.06,76.68h-51.55c-24.42-2.31-41.08-3-76.11-15.21V665.5c63.71,23.6,156.86,27.4,156.86-12.94,0-24.57-27.6-25.34-59.31-25.36h-35.68A73.88,73.88,0,0,1,1032,553.54V535.8c0-40.51,40.35-71.35,80.67-75.06" transform="translate(-31.92 -342.65)"></path><polygon class="cls-5" points="546.32 394.7 626.79 394.7 692.97 308.04 759.14 394.7 839.62 394.7 733.21 255.34 839.62 115.99 759.14 115.99 692.97 202.64 626.8 115.99 546.32 115.99 652.73 255.34 546.32 394.7"></polygon></g></svg> 